<svg xmlns="http://www.w3.org/2000/svg" viewBox="0 0 338.74 101.41"><defs><style>.cls-1{fill:#fff}.cls-2{fill:#2cadd1}</style></defs><title>資產 1</title><g id="圖層_2" data-name="圖層 2"><g id="圖層_2-2" data-name="圖層 2"><path class="cls-1" d="M112.06 25.38h37.28v9.79h-26.51V45.6h23.36v9.79h-23.36v19h-10.77zm49.52 0h3.64v49h-3.64zm20.42 0h16.3c15.39 0 26 10.56 26 24.34v.14c0 13.78-10.63 24.48-26 24.48H182zM198.3 71c13.64 0 22.24-9.3 22.24-21v-.14c0-11.61-8.6-21.12-22.24-21.12h-12.66V71zm40.15-45.62h34.83v3.36h-31.2V48h28v3.36h-28V71h31.55v3.36h-35.18zm45.46 41.83l2.38-2.73c5.39 5 10.35 7.27 17.56 7.27s12.38-4.13 12.38-9.72v-.14c0-5.18-2.73-8.18-13.85-10.42-11.75-2.38-16.51-6.37-16.51-13.78v-.14c0-7.27 6.65-12.87 15.74-12.87a24.41 24.41 0 0 1 16.79 5.95l-2.31 2.87a21.07 21.07 0 0 0-14.62-5.5c-7.21 0-12 4.13-12 9.23v.14c0 5.18 2.66 8.32 14.27 10.7 11.33 2.31 16.09 6.37 16.09 13.5v.14c0 7.9-6.78 13.36-16.23 13.36-7.8-.07-13.81-2.61-19.69-7.86z"/><path class="cls-2" d="M334.88 67.31a3.87 3.87 0 1 0 3.87 3.87 3.87 3.87 0 0 0-3.87-3.87zM43.91 3.71l40.7 23.5v47l-40.7 23.5L3.21 74.2v-47l40.7-23.49m0-3.71L0 25.35v50.7l43.91 25.35 43.91-25.35v-50.7L43.91 0z"/><path class="cls-2" d="M37.62 38.05h-9.64v37.14l9.64-8.69V38.05z"/><path class="cls-1" d="M55.01 38.05H27.98l9.68-7.52 26.41-.28-9.06 7.8zm0 18.14H27.98l9.68-7.52 26.41-.28-9.06 7.8z"/></g></g></svg>